<?xml version="1.0" encoding="UTF-8" standalone="no"?>
<!-- Created with Inkscape (http://www.inkscape.org/) -->

<svg
   width="650"
   height="90"
   viewBox="0 0 171.97918 23.812502"
   version="1.1"
   id="svg1203"
   inkscape:version="1.1 (1:1.1+202105261517+ce6663b3b7)"
   sodipodi:docname="logo.svg"
   xmlns:inkscape="http://www.inkscape.org/namespaces/inkscape"
   xmlns:sodipodi="http://sodipodi.sourceforge.net/DTD/sodipodi-0.dtd"
   xmlns="http://www.w3.org/2000/svg"
   xmlns:svg="http://www.w3.org/2000/svg">
  <sodipodi:namedview
     id="namedview1205"
     pagecolor="#ffffff"
     bordercolor="#666666"
     borderopacity="1.0"
     inkscape:pageshadow="2"
     inkscape:pageopacity="0.0"
     inkscape:pagecheckerboard="0"
     inkscape:document-units="mm"
     showgrid="false"
     width="650px"
     units="px"
     inkscape:zoom="1.4289282"
     inkscape:cx="334.86637"
     inkscape:cy="28.342922"
     inkscape:window-width="1920"
     inkscape:window-height="948"
     inkscape:window-x="1920"
     inkscape:window-y="27"
     inkscape:window-maximized="1"
     inkscape:current-layer="layer1"
     inkscape:snap-global="false" />
  <defs
     id="defs1200">
    <inkscape:path-effect
       effect="fillet_chamfer"
       id="path-effect57379"
       is_visible="true"
       lpeversion="1"
       satellites_param="F,0,0,1,0,0,0,1 @ F,0,0,1,0,0,0,1 @ F,0,0,1,0,0,0,1 @ F,0,0,1,0,0,0,1"
       unit="px"
       method="auto"
       mode="F"
       radius="14"
       chamfer_steps="1"
       flexible="false"
       use_knot_distance="true"
       apply_no_radius="true"
       apply_with_radius="true"
       only_selected="false"
       hide_knots="false" />
  </defs>
  <g
     inkscape:label="Layer 1"
     inkscape:groupmode="layer"
     id="layer1">
    <path
       style="fill:#ffe6d5;stroke:none;stroke-width:1.4928;stroke-linecap:round;stroke-linejoin:round;stroke-miterlimit:4;stroke-dasharray:none;stroke-opacity:1"
       id="rect4955"
       width="36.496414"
       height="18.151592"
       x="127.93157"
       y="2.9803145"
       inkscape:export-filename="/home/braginini/Documents/projects/my/wiretrustee/wiretrustee.com-nextjs/public/brand-assets/logo.png"
       inkscape:export-xdpi="100"
       inkscape:export-ydpi="100"
       inkscape:path-effect="#path-effect57379"
       d="m 127.93157,2.9803145 h 36.49642 V 21.131907 h -36.49642 z"
       sodipodi:type="rect" />
    <rect
       style="fill:#4d4d4d;fill-opacity:1;stroke:#4d4d4d;stroke-width:0.469682;stroke-miterlimit:4;stroke-dasharray:none;stroke-opacity:1"
       id="rect846-7-1-6-3-3"
       width="8.3084803"
       height="1.4026668"
       x="-16.427496"
       y="9.0759926"
       transform="rotate(-90.316085)"
       inkscape:export-filename="/home/braginini/Documents/projects/my/wiretrustee/wiretrustee.com-nextjs/public/brand-assets/logo.png"
       inkscape:export-xdpi="100"
       inkscape:export-ydpi="100" />
    <rect
       style="fill:#4d4d4d;fill-opacity:1;stroke:#4d4d4d;stroke-width:0.475903;stroke-miterlimit:4;stroke-dasharray:none;stroke-opacity:1"
       id="rect848-5-2-7-6-6"
       width="11.044826"
       height="1.3431981"
       x="-17.756079"
       y="12.90315"
       transform="rotate(-90.316085)"
       inkscape:export-filename="/home/braginini/Documents/projects/my/wiretrustee/wiretrustee.com-nextjs/public/brand-assets/logo.png"
       inkscape:export-xdpi="100"
       inkscape:export-ydpi="100" />
    <rect
       style="fill:#fb923c;fill-opacity:1;stroke:#fb923c;stroke-width:0.433222;stroke-miterlimit:4;stroke-dasharray:none;stroke-opacity:1"
       id="rect856-2-3-3-7-7"
       width="18.221733"
       height="1.5770524"
       x="-20.953156"
       y="16.713232"
       transform="matrix(-0.00773537,-0.99997008,0.99999226,-0.00393418,0,0)"
       inkscape:export-filename="/home/braginini/Documents/projects/my/wiretrustee/wiretrustee.com-nextjs/public/brand-assets/logo.png"
       inkscape:export-xdpi="100"
       inkscape:export-ydpi="100" />
    <rect
       style="fill:#c8beb7;fill-opacity:1;stroke:#c8beb7;stroke-width:0.469681;stroke-miterlimit:4;stroke-dasharray:none;stroke-opacity:1"
       id="rect846-2-2-1-5-5-5"
       width="8.3038759"
       height="1.4026663"
       x="8.150857"
       y="-25.684265"
       transform="matrix(0.0087466,0.99996175,-0.9999641,0.00847299,0,0)"
       inkscape:export-filename="/home/braginini/Documents/projects/my/wiretrustee/wiretrustee.com-nextjs/public/brand-assets/logo.png"
       inkscape:export-xdpi="100"
       inkscape:export-ydpi="100" />
    <rect
       style="fill:#c8beb7;fill-opacity:1;stroke:#c8beb7;stroke-width:0.475903;stroke-miterlimit:4;stroke-dasharray:none;stroke-opacity:1"
       id="rect848-0-8-9-6-3-3"
       width="11.044831"
       height="1.3431977"
       x="6.9009185"
       y="-21.856609"
       transform="matrix(0.00872437,0.99996194,-0.99996393,0.00849351,0,0)"
       inkscape:export-filename="/home/braginini/Documents/projects/my/wiretrustee/wiretrustee.com-nextjs/public/brand-assets/logo.png"
       inkscape:export-xdpi="100"
       inkscape:export-ydpi="100" />
    <g
       aria-label="DOCS"
       id="text6626"
       style="font-size:10.5833px;line-height:1.25;font-family:Poppins;-inkscape-font-specification:Poppins;stroke-width:0.264583">
      <path
         d="m 134.29345,8.1771893 q 1.17475,0 2.05316,0.4656652 0.87842,0.4656651 1.35467,1.3123291 0.48683,0.8360804 0.48683,1.9367434 0,1.09008 -0.48683,1.936744 -0.47625,0.846664 -1.36525,1.312329 -0.87841,0.465666 -2.04258,0.465666 h -2.7834 V 8.1771893 Z m -0.11641,5.8631477 q 1.02658,0 1.59808,-0.560915 0.57149,-0.560914 0.57149,-1.587495 0,-1.02658 -0.57149,-1.598078 -0.5715,-0.571498 -1.59808,-0.571498 h -0.85725 v 4.317986 z"
         style="font-weight:bold;-inkscape-font-specification:'Poppins Bold';fill:#fb923c"
         id="path57236" />
      <path
         d="m 142.71775,15.680749 q -1.04774,0 -1.92616,-0.486832 -0.86783,-0.486832 -1.38641,-1.354662 -0.508,-0.878414 -0.508,-1.968494 0,-1.09008 0.508,-1.9579106 0.51858,-0.8678306 1.38641,-1.3546623 0.87842,-0.4868318 1.92616,-0.4868318 1.04775,0 1.91558,0.4868318 0.87841,0.4868317 1.37583,1.3546623 0.508,0.8678306 0.508,1.9579106 0,1.09008 -0.508,1.968494 -0.508,0.86783 -1.37583,1.354662 -0.86783,0.486832 -1.91558,0.486832 z m 0,-1.650995 q 0.889,0 1.41817,-0.592665 0.53974,-0.592665 0.53974,-1.566328 0,-0.984247 -0.53974,-1.566329 -0.52917,-0.5926643 -1.41817,-0.5926643 -0.89958,0 -1.43933,0.5820813 -0.52916,0.582082 -0.52916,1.576912 0,0.984247 0.52916,1.576911 0.53975,0.582082 1.43933,0.582082 z"
         style="font-weight:bold;-inkscape-font-specification:'Poppins Bold';fill:#fb923c"
         id="path57238" />
      <path
         d="m 147.21565,11.881344 q 0,-1.100663 0.47625,-1.9579103 0.47625,-0.8678306 1.32291,-1.344079 0.85725,-0.4868318 1.93674,-0.4868318 1.32292,0 2.26483,0.6984977 0.94191,0.6984978 1.25941,1.9049944 h -1.98966 q -0.22225,-0.465666 -0.635,-0.7090815 -0.40216,-0.2434159 -0.92074,-0.2434159 -0.83608,0 -1.35467,0.5820814 -0.51858,0.582082 -0.51858,1.555745 0,0.973664 0.51858,1.555745 0.51859,0.582082 1.35467,0.582082 0.51858,0 0.92074,-0.243416 0.41275,-0.243416 0.635,-0.709081 h 1.98966 q -0.3175,1.206496 -1.25941,1.904994 -0.94191,0.687914 -2.26483,0.687914 -1.07949,0 -1.93674,-0.476248 -0.84666,-0.486832 -1.32291,-1.344079 -0.47625,-0.857248 -0.47625,-1.957911 z"
         style="font-weight:bold;-inkscape-font-specification:'Poppins Bold';fill:#fb923c"
         id="path57240" />
      <path
         d="m 158.27519,15.680749 q -0.81492,0 -1.4605,-0.264583 -0.64558,-0.264582 -1.03716,-0.783164 -0.381,-0.518582 -0.40217,-1.248829 h 1.92616 q 0.0423,0.412748 0.28575,0.634998 0.24342,0.211666 0.635,0.211666 0.40217,0 0.635,-0.179916 0.23283,-0.1905 0.23283,-0.518582 0,-0.275166 -0.1905,-0.455082 -0.17991,-0.179916 -0.45508,-0.296332 -0.26458,-0.116417 -0.762,-0.264583 -0.71966,-0.222249 -1.17474,-0.444498 -0.45509,-0.22225 -0.78317,-0.656165 -0.32808,-0.433915 -0.32808,-1.132413 0,-1.0371635 0.75141,-1.619245 0.75142,-0.5926647 1.95791,-0.5926647 1.22767,0 1.97908,0.5926647 0.75142,0.5820815 0.80433,1.629828 h -1.95791 q -0.0212,-0.359832 -0.26458,-0.5609147 -0.24342,-0.211666 -0.62442,-0.211666 -0.32808,0 -0.52916,0.1799161 -0.20108,0.1693328 -0.20108,0.4974146 0,0.359833 0.33866,0.560915 0.33867,0.201083 1.05833,0.433916 0.71967,0.243416 1.16417,0.465665 0.45508,0.222249 0.78316,0.645581 0.32808,0.423332 0.32808,1.09008 0,0.634998 -0.32808,1.15358 -0.3175,0.518581 -0.93133,0.825497 -0.61383,0.306916 -1.44991,0.306916 z"
         style="font-weight:bold;-inkscape-font-specification:'Poppins Bold';fill:#fb923c"
         id="path57242" />
    </g>
    <g
       aria-label="wiretrustee"
       id="text71950"
       style="font-size:16.9333px;line-height:1.25;font-family:Poppins;-inkscape-font-specification:Poppins;fill:#4d4d4d;stroke-width:0.264583">
      <path
         d="m 42.702606,7.9723831 -2.895595,9.3302479 h -2.031996 l -1.879596,-6.891853 -1.879596,6.891853 H 31.983827 L 29.071299,7.9723831 h 1.964263 l 1.947329,7.5014519 1.981197,-7.5014519 h 2.015062 l 1.89653,7.4675849 1.930396,-7.4675849 z"
         style="font-weight:500;-inkscape-font-specification:'Poppins Medium'"
         id="path93708" />
      <path
         d="m 45.124049,6.7362522 q -0.524933,0 -0.880532,-0.3555993 -0.355599,-0.3555993 -0.355599,-0.8805316 0,-0.5249323 0.355599,-0.8805316 0.355599,-0.3555993 0.880532,-0.3555993 0.507999,0 0.863598,0.3555993 0.355599,0.3555993 0.355599,0.8805316 0,0.5249323 -0.355599,0.8805316 -0.355599,0.3555993 -0.863598,0.3555993 z m 0.948264,1.2361309 V 17.302631 H 44.141917 V 7.9723831 Z"
         style="font-weight:500;-inkscape-font-specification:'Poppins Medium'"
         id="path93710" />
      <path
         d="M 50.542704,9.3270471 Q 50.966036,8.6158485 51.660301,8.2263826 52.3715,7.8199834 53.336698,7.8199834 v 1.9981294 h -0.491066 q -1.134531,0 -1.727196,0.5757322 -0.575732,0.575732 -0.575732,1.998129 v 4.910657 H 48.612307 V 7.9723831 h 1.930397 z"
         style="font-weight:500;-inkscape-font-specification:'Poppins Medium'"
         id="path93712" />
      <path
         d="m 63.665991,12.408908 q 0,0.524932 -0.06773,0.948264 h -7.12892 q 0.08467,1.117598 0.829732,1.79493 0.745065,0.677332 1.828797,0.677332 1.557863,0 2.201329,-1.303864 h 2.082795 q -0.423332,1.286931 -1.54093,2.116663 -1.100664,0.812798 -2.743194,0.812798 -1.337731,0 -2.404529,-0.592665 -1.049865,-0.609599 -1.659463,-1.69333 -0.592666,-1.100665 -0.592666,-2.539995 0,-1.439331 0.575732,-2.523062 0.592666,-1.1006646 1.64253,-1.6933301 1.066798,-0.5926655 2.438396,-0.5926655 1.320797,0 2.353728,0.5757322 1.032932,0.5757322 1.608664,1.6255964 0.575732,1.032932 0.575732,2.387596 z M 61.650928,11.799309 Q 61.633995,10.732511 60.88893,10.089046 60.143865,9.4455802 59.0432,9.4455802 q -0.999065,0 -1.710263,0.6434658 -0.711199,0.626532 -0.846665,1.710263 z"
         style="font-weight:500;-inkscape-font-specification:'Poppins Medium'"
         id="path93714" />
      <path
         d="m 67.814626,9.54718 v 5.164656 q 0,0.524933 0.237066,0.761999 0.254,0.220133 0.846665,0.220133 h 1.185331 v 1.608663 h -1.523997 q -1.303864,0 -1.998129,-0.609598 -0.694266,-0.609599 -0.694266,-1.981197 V 9.54718 H 64.766632 V 7.9723831 h 1.100664 V 5.652521 h 1.94733 v 2.3198621 h 2.269062 V 9.54718 Z"
         style="font-weight:500;-inkscape-font-specification:'Poppins Medium'"
         id="path93716" />
      <path
         d="m 73.79208,9.3270471 q 0.423332,-0.7111986 1.117598,-1.1006645 0.711198,-0.4063992 1.676396,-0.4063992 v 1.9981294 h -0.491065 q -1.134531,0 -1.727197,0.5757322 -0.575732,0.575732 -0.575732,1.998129 v 4.910657 H 71.861684 V 7.9723831 h 1.930396 z"
         style="font-weight:500;-inkscape-font-specification:'Poppins Medium'"
         id="path93718" />
      <path
         d="m 86.813766,7.9723831 v 9.3302479 h -1.930397 v -1.100664 q -0.457199,0.575732 -1.202264,0.914398 -0.728132,0.321733 -1.557864,0.321733 -1.100664,0 -1.981196,-0.457199 Q 79.278447,16.5237 78.770448,15.626235 78.279382,14.72877 78.279382,13.458772 V 7.9723831 h 1.913463 v 5.1985229 q 0,1.253064 0.626532,1.930396 0.626532,0.660399 1.710264,0.660399 1.083731,0 1.710263,-0.660399 0.643465,-0.677332 0.643465,-1.930396 V 7.9723831 Z"
         style="font-weight:500;-inkscape-font-specification:'Poppins Medium'"
         id="path93720" />
      <path
         d="m 92.740394,17.455031 q -1.100665,0 -1.981196,-0.389466 -0.863598,-0.406399 -1.371597,-1.083731 -0.507999,-0.694265 -0.541866,-1.54093 h 1.998129 q 0.0508,0.592665 0.558799,0.999064 0.524933,0.389466 1.303864,0.389466 0.812799,0 1.253065,-0.304799 0.457199,-0.321733 0.457199,-0.812799 0,-0.524932 -0.507999,-0.778931 -0.491066,-0.254 -1.574797,-0.558799 -1.049865,-0.287866 -1.710264,-0.558799 -0.660398,-0.270933 -1.151464,-0.829732 -0.474132,-0.558799 -0.474132,-1.473197 0,-0.7450651 0.440265,-1.3546639 0.440266,-0.6265321 1.253065,-0.9821314 0.829731,-0.3555993 1.896529,-0.3555993 1.59173,0 2.556929,0.8127984 0.982131,0.7958651 1.049864,2.1843952 h -1.930396 q -0.0508,-0.626532 -0.507999,-0.9990642 -0.457199,-0.3725326 -1.236131,-0.3725326 -0.761998,0 -1.168398,0.2878661 -0.406399,0.2878657 -0.406399,0.7619987 0,0.372532 0.270933,0.626532 0.270933,0.253999 0.660399,0.406399 0.389466,0.135466 1.151464,0.355599 1.015998,0.270933 1.659463,0.558799 0.660399,0.270933 1.134532,0.812799 0.474132,0.541865 0.491065,1.43933 0,0.795865 -0.440266,1.422397 -0.440265,0.626532 -1.253064,0.982132 -0.795865,0.355599 -1.879596,0.355599 z"
         style="font-weight:500;-inkscape-font-specification:'Poppins Medium'"
         id="path93722" />
      <path
         d="m 100.64822,9.54718 v 5.164656 q 0,0.524933 0.23707,0.761999 0.254,0.220133 0.84666,0.220133 h 1.18533 v 1.608663 h -1.52399 q -1.30387,0 -1.998133,-0.609598 -0.694265,-0.609599 -0.694265,-1.981197 V 9.54718 H 97.600227 V 7.9723831 h 1.100665 V 5.652521 h 1.947328 v 2.3198621 h 2.26906 V 9.54718 Z"
         style="font-weight:500;-inkscape-font-specification:'Poppins Medium'"
         id="path93724" />
      <path
         d="m 113.24659,12.408908 q 0,0.524932 -0.0677,0.948264 h -7.12891 q 0.0847,1.117598 0.82973,1.79493 0.74506,0.677332 1.82879,0.677332 1.55787,0 2.20133,-1.303864 h 2.0828 q -0.42333,1.286931 -1.54093,2.116663 -1.10067,0.812798 -2.7432,0.812798 -1.33773,0 -2.40453,-0.592665 -1.04986,-0.609599 -1.65946,-1.69333 -0.59266,-1.100665 -0.59266,-2.539995 0,-1.439331 0.57573,-2.523062 0.59266,-1.1006646 1.64253,-1.6933301 1.0668,-0.5926655 2.43839,-0.5926655 1.3208,0 2.35373,0.5757322 1.03293,0.5757322 1.60867,1.6255964 0.57573,1.032932 0.57573,2.387596 z m -2.01506,-0.609599 q -0.0169,-1.066798 -0.762,-1.710263 -0.74507,-0.6434658 -1.84573,-0.6434658 -0.99907,0 -1.71027,0.6434658 -0.71119,0.626532 -0.84666,1.710263 z"
         style="font-weight:500;-inkscape-font-specification:'Poppins Medium'"
         id="path93726" />
      <path
         d="m 123.69441,12.408908 q 0,0.524932 -0.0677,0.948264 h -7.12892 q 0.0847,1.117598 0.82973,1.79493 0.74506,0.677332 1.8288,0.677332 1.55786,0 2.20133,-1.303864 h 2.08279 q -0.42333,1.286931 -1.54093,2.116663 -1.10066,0.812798 -2.74319,0.812798 -1.33773,0 -2.40453,-0.592665 -1.04987,-0.609599 -1.65947,-1.69333 -0.59266,-1.100665 -0.59266,-2.539995 0,-1.439331 0.57573,-2.523062 0.59267,-1.1006646 1.64253,-1.6933301 1.0668,-0.5926655 2.4384,-0.5926655 1.32079,0 2.35372,0.5757322 1.03294,0.5757322 1.60867,1.6255964 0.57573,1.032932 0.57573,2.387596 z m -2.01506,-0.609599 q -0.0169,-1.066798 -0.762,-1.710263 -0.74507,-0.6434658 -1.84573,-0.6434658 -0.99907,0 -1.71026,0.6434658 -0.7112,0.626532 -0.84667,1.710263 z"
         style="font-weight:500;-inkscape-font-specification:'Poppins Medium'"
         id="path93728" />
    </g>
  </g>
</svg>
