<?xml version="1.0" encoding="UTF-8" standalone="no"?>
<!-- Created with Inkscape (http://www.inkscape.org/) -->

<svg
   width="650"
   height="90"
   viewBox="0 0 171.97918 23.812502"
   version="1.1"
   id="svg1203"
   inkscape:version="1.1 (1:1.1+202105261517+ce6663b3b7)"
   sodipodi:docname="logo-dark.svg"
   xmlns:inkscape="http://www.inkscape.org/namespaces/inkscape"
   xmlns:sodipodi="http://sodipodi.sourceforge.net/DTD/sodipodi-0.dtd"
   xmlns="http://www.w3.org/2000/svg"
   xmlns:svg="http://www.w3.org/2000/svg">
  <sodipodi:namedview
     id="namedview1205"
     pagecolor="#ffffff"
     bordercolor="#666666"
     borderopacity="1.0"
     inkscape:pageshadow="2"
     inkscape:pageopacity="0.0"
     inkscape:pagecheckerboard="0"
     inkscape:document-units="mm"
     showgrid="false"
     width="650px"
     units="px"
     inkscape:zoom="1.4289282"
     inkscape:cx="334.86637"
     inkscape:cy="84.32894"
     inkscape:window-width="1920"
     inkscape:window-height="948"
     inkscape:window-x="1920"
     inkscape:window-y="27"
     inkscape:window-maximized="1"
     inkscape:current-layer="text71950"
     inkscape:snap-global="false" />
  <defs
     id="defs1200">
    <inkscape:path-effect
       effect="fillet_chamfer"
       id="path-effect57379"
       is_visible="true"
       lpeversion="1"
       satellites_param="F,0,0,1,0,4.4979167,0,1 @ F,0,0,1,0,4.4979167,0,1 @ F,0,0,1,0,4.4979167,0,1 @ F,0,0,1,0,4.4979167,0,1"
       unit="px"
       method="auto"
       mode="F"
       radius="17"
       chamfer_steps="1"
       flexible="false"
       use_knot_distance="true"
       apply_no_radius="true"
       apply_with_radius="true"
       only_selected="false"
       hide_knots="false" />
  </defs>
  <g
     inkscape:label="Layer 1"
     inkscape:groupmode="layer"
     id="layer1">
    <path
       style="fill:#ffe6d5;stroke:none;stroke-width:1.4928;stroke-linecap:round;stroke-linejoin:round;stroke-miterlimit:4;stroke-dasharray:none;stroke-opacity:1"
       id="rect4955"
       width="43"
       height="18.151592"
       x="127.33945"
       y="2.9803145"
       inkscape:export-filename="/home/braginini/Documents/projects/my/wiretrustee/wiretrustee.com-nextjs/public/brand-assets/logo.png"
       inkscape:export-xdpi="100"
       inkscape:export-ydpi="100"
       d="m 131.83736,2.9803145 34.00417,0 a 4.4979167,4.4979167 45 0 1 4.49792,4.4979167 V 16.63399 a 4.4979167,4.4979167 135 0 1 -4.49792,4.497917 h -34.00417 a 4.4979167,4.4979167 45 0 1 -4.49791,-4.497917 l 0,-9.1557588 a 4.4979167,4.4979167 135 0 1 4.49791,-4.4979167 z"
       sodipodi:type="rect"
       inkscape:path-effect="#path-effect57379" />
    <rect
       style="fill:#4d4d4d;fill-opacity:1;stroke:#4d4d4d;stroke-width:0.469682;stroke-miterlimit:4;stroke-dasharray:none;stroke-opacity:1"
       id="rect846-7-1-6-3-3"
       width="8.3084803"
       height="1.4026668"
       x="-16.427496"
       y="9.0759926"
       transform="rotate(-90.316085)"
       inkscape:export-filename="/home/braginini/Documents/projects/my/wiretrustee/wiretrustee.com-nextjs/public/brand-assets/logo.png"
       inkscape:export-xdpi="100"
       inkscape:export-ydpi="100" />
    <rect
       style="fill:#4d4d4d;fill-opacity:1;stroke:#4d4d4d;stroke-width:0.475903;stroke-miterlimit:4;stroke-dasharray:none;stroke-opacity:1"
       id="rect848-5-2-7-6-6"
       width="11.044826"
       height="1.3431981"
       x="-17.756079"
       y="12.90315"
       transform="rotate(-90.316085)"
       inkscape:export-filename="/home/braginini/Documents/projects/my/wiretrustee/wiretrustee.com-nextjs/public/brand-assets/logo.png"
       inkscape:export-xdpi="100"
       inkscape:export-ydpi="100" />
    <rect
       style="fill:#fb923c;fill-opacity:1;stroke:#fb923c;stroke-width:0.433222;stroke-miterlimit:4;stroke-dasharray:none;stroke-opacity:1"
       id="rect856-2-3-3-7-7"
       width="18.221733"
       height="1.5770524"
       x="-20.953156"
       y="16.713232"
       transform="matrix(-0.00773537,-0.99997008,0.99999226,-0.00393418,0,0)"
       inkscape:export-filename="/home/braginini/Documents/projects/my/wiretrustee/wiretrustee.com-nextjs/public/brand-assets/logo.png"
       inkscape:export-xdpi="100"
       inkscape:export-ydpi="100" />
    <rect
       style="fill:#c8beb7;fill-opacity:1;stroke:#c8beb7;stroke-width:0.469681;stroke-miterlimit:4;stroke-dasharray:none;stroke-opacity:1"
       id="rect846-2-2-1-5-5-5"
       width="8.3038759"
       height="1.4026663"
       x="8.150857"
       y="-25.684265"
       transform="matrix(0.0087466,0.99996175,-0.9999641,0.00847299,0,0)"
       inkscape:export-filename="/home/braginini/Documents/projects/my/wiretrustee/wiretrustee.com-nextjs/public/brand-assets/logo.png"
       inkscape:export-xdpi="100"
       inkscape:export-ydpi="100" />
    <rect
       style="fill:#c8beb7;fill-opacity:1;stroke:#c8beb7;stroke-width:0.475903;stroke-miterlimit:4;stroke-dasharray:none;stroke-opacity:1"
       id="rect848-0-8-9-6-3-3"
       width="11.044831"
       height="1.3431977"
       x="6.9009185"
       y="-21.856609"
       transform="matrix(0.00872437,0.99996194,-0.99996393,0.00849351,0,0)"
       inkscape:export-filename="/home/braginini/Documents/projects/my/wiretrustee/wiretrustee.com-nextjs/public/brand-assets/logo.png"
       inkscape:export-xdpi="100"
       inkscape:export-ydpi="100" />
    <g
       aria-label="DOCS"
       id="text6626"
       style="font-size:10.5833px;line-height:1.25;font-family:Poppins;-inkscape-font-specification:Poppins;stroke-width:0.264583"
       transform="matrix(0.99998439,0,0,1,2.5940024,0.478083)">
      <path
         d="m 134.29345,8.1771893 q 1.17475,0 2.05316,0.4656652 0.87842,0.4656651 1.35467,1.3123291 0.48683,0.8360804 0.48683,1.9367434 0,1.09008 -0.48683,1.936744 -0.47625,0.846664 -1.36525,1.312329 -0.87841,0.465666 -2.04258,0.465666 h -2.7834 V 8.1771893 Z m -0.11641,5.8631477 q 1.02658,0 1.59808,-0.560915 0.57149,-0.560914 0.57149,-1.587495 0,-1.02658 -0.57149,-1.598078 -0.5715,-0.571498 -1.59808,-0.571498 h -0.85725 v 4.317986 z"
         style="font-weight:bold;-inkscape-font-specification:'Poppins Bold';fill:#fb923c"
         id="path57236" />
      <path
         d="m 142.71775,15.680749 q -1.04774,0 -1.92616,-0.486832 -0.86783,-0.486832 -1.38641,-1.354662 -0.508,-0.878414 -0.508,-1.968494 0,-1.09008 0.508,-1.9579106 0.51858,-0.8678306 1.38641,-1.3546623 0.87842,-0.4868318 1.92616,-0.4868318 1.04775,0 1.91558,0.4868318 0.87841,0.4868317 1.37583,1.3546623 0.508,0.8678306 0.508,1.9579106 0,1.09008 -0.508,1.968494 -0.508,0.86783 -1.37583,1.354662 -0.86783,0.486832 -1.91558,0.486832 z m 0,-1.650995 q 0.889,0 1.41817,-0.592665 0.53974,-0.592665 0.53974,-1.566328 0,-0.984247 -0.53974,-1.566329 -0.52917,-0.5926643 -1.41817,-0.5926643 -0.89958,0 -1.43933,0.5820813 -0.52916,0.582082 -0.52916,1.576912 0,0.984247 0.52916,1.576911 0.53975,0.582082 1.43933,0.582082 z"
         style="font-weight:bold;-inkscape-font-specification:'Poppins Bold';fill:#fb923c"
         id="path57238" />
      <path
         d="m 147.21565,11.881344 q 0,-1.100663 0.47625,-1.9579103 0.47625,-0.8678306 1.32291,-1.344079 0.85725,-0.4868318 1.93674,-0.4868318 1.32292,0 2.26483,0.6984977 0.94191,0.6984978 1.25941,1.9049944 h -1.98966 q -0.22225,-0.465666 -0.635,-0.7090815 -0.40216,-0.2434159 -0.92074,-0.2434159 -0.83608,0 -1.35467,0.5820814 -0.51858,0.582082 -0.51858,1.555745 0,0.973664 0.51858,1.555745 0.51859,0.582082 1.35467,0.582082 0.51858,0 0.92074,-0.243416 0.41275,-0.243416 0.635,-0.709081 h 1.98966 q -0.3175,1.206496 -1.25941,1.904994 -0.94191,0.687914 -2.26483,0.687914 -1.07949,0 -1.93674,-0.476248 -0.84666,-0.486832 -1.32291,-1.344079 -0.47625,-0.857248 -0.47625,-1.957911 z"
         style="font-weight:bold;-inkscape-font-specification:'Poppins Bold';fill:#fb923c"
         id="path57240" />
      <path
         d="m 158.27519,15.680749 q -0.81492,0 -1.4605,-0.264583 -0.64558,-0.264582 -1.03716,-0.783164 -0.381,-0.518582 -0.40217,-1.248829 h 1.92616 q 0.0423,0.412748 0.28575,0.634998 0.24342,0.211666 0.635,0.211666 0.40217,0 0.635,-0.179916 0.23283,-0.1905 0.23283,-0.518582 0,-0.275166 -0.1905,-0.455082 -0.17991,-0.179916 -0.45508,-0.296332 -0.26458,-0.116417 -0.762,-0.264583 -0.71966,-0.222249 -1.17474,-0.444498 -0.45509,-0.22225 -0.78317,-0.656165 -0.32808,-0.433915 -0.32808,-1.132413 0,-1.0371635 0.75141,-1.619245 0.75142,-0.5926647 1.95791,-0.5926647 1.22767,0 1.97908,0.5926647 0.75142,0.5820815 0.80433,1.629828 h -1.95791 q -0.0212,-0.359832 -0.26458,-0.5609147 -0.24342,-0.211666 -0.62442,-0.211666 -0.32808,0 -0.52916,0.1799161 -0.20108,0.1693328 -0.20108,0.4974146 0,0.359833 0.33866,0.560915 0.33867,0.201083 1.05833,0.433916 0.71967,0.243416 1.16417,0.465665 0.45508,0.222249 0.78316,0.645581 0.32808,0.423332 0.32808,1.09008 0,0.634998 -0.32808,1.15358 -0.3175,0.518581 -0.93133,0.825497 -0.61383,0.306916 -1.44991,0.306916 z"
         style="font-weight:bold;-inkscape-font-specification:'Poppins Bold';fill:#fb923c"
         id="path57242" />
    </g>
    <g
       aria-label="wiretrustee"
       id="text71950"
       style="font-size:16.9333px;line-height:1.25;font-family:Poppins;-inkscape-font-specification:Poppins;fill:#4d4d4d;stroke-width:0.264583">
      <g
         aria-label="wiretrustee"
         id="text94786"
         style="stroke-width:0.0700042">
        <path
           d="M 42.819526,7.3589607 39.923932,16.689209 H 37.891936 L 36.012339,9.7973559 34.132743,16.689209 H 32.100747 L 29.18822,7.3589607 h 1.964262 l 1.94733,7.5014523 1.981196,-7.5014523 h 2.015063 L 38.9926,14.826546 40.922996,7.3589607 Z"
           style="font-weight:500;-inkscape-font-specification:'Poppins Medium';fill:#ffffff"
           id="path123488" />
        <path
           d="m 45.240969,6.1228298 q -0.524932,0 -0.880532,-0.3555993 -0.355599,-0.3555993 -0.355599,-0.8805316 0,-0.5249323 0.355599,-0.8805316 0.3556,-0.3555993 0.880532,-0.3555993 0.507999,0 0.863598,0.3555993 0.3556,0.3555993 0.3556,0.8805316 0,0.5249323 -0.3556,0.8805316 -0.355599,0.3555993 -0.863598,0.3555993 z m 0.948265,1.2361309 V 16.689209 H 44.258838 V 7.3589607 Z"
           style="font-weight:500;-inkscape-font-specification:'Poppins Medium';fill:#ffffff"
           id="path123490" />
        <path
           d="M 50.659624,8.7136247 Q 51.082957,8.0024261 51.777222,7.6129602 52.488421,7.206561 53.453619,7.206561 v 1.9981294 h -0.491066 q -1.134531,0 -1.727197,0.5757322 -0.575732,0.5757324 -0.575732,1.9981294 v 4.910657 H 48.729228 V 7.3589607 h 1.930396 z"
           style="font-weight:500;-inkscape-font-specification:'Poppins Medium';fill:#ffffff"
           id="path123492" />
        <path
           d="m 63.782911,11.795485 q 0,0.524933 -0.06773,0.948265 h -7.128919 q 0.08467,1.117598 0.829732,1.79493 0.745065,0.677332 1.828796,0.677332 1.557864,0 2.201329,-1.303864 h 2.082796 q -0.423333,1.286931 -1.54093,2.116662 -1.100665,0.812799 -2.743195,0.812799 -1.337731,0 -2.404529,-0.592666 -1.049864,-0.609599 -1.659463,-1.69333 -0.592665,-1.100664 -0.592665,-2.539995 0,-1.43933 0.575732,-2.5230615 0.592665,-1.1006645 1.64253,-1.69333 1.066798,-0.5926655 2.438395,-0.5926655 1.320797,0 2.353729,0.5757322 1.032931,0.5757322 1.608663,1.6255968 0.575732,1.032931 0.575732,2.387595 z M 61.767849,11.185886 Q 61.750915,10.119089 61.00585,9.4756232 60.260785,8.8321578 59.160121,8.8321578 q -0.999065,0 -1.710264,0.6434654 -0.711198,0.6265318 -0.846665,1.7102628 z"
           style="font-weight:500;-inkscape-font-specification:'Poppins Medium';fill:#ffffff"
           id="path123494" />
        <path
           d="m 67.931546,8.9337576 v 5.1646564 q 0,0.524932 0.237067,0.761999 0.253999,0.220132 0.846665,0.220132 h 1.185331 v 1.608664 h -1.523997 q -1.303864,0 -1.99813,-0.609599 -0.694265,-0.609599 -0.694265,-1.981196 V 8.9337576 H 64.883552 V 7.3589607 h 1.100665 V 5.0390986 h 1.947329 v 2.3198621 h 2.269063 v 1.5747969 z"
           style="font-weight:500;-inkscape-font-specification:'Poppins Medium';fill:#ffffff"
           id="path123496" />
        <path
           d="M 73.909,8.7136247 Q 74.332333,8.0024261 75.026598,7.6129602 75.737797,7.206561 76.702995,7.206561 v 1.9981294 h -0.491066 q -1.134531,0 -1.727196,0.5757322 Q 73.909,10.356155 73.909,11.778552 v 4.910657 H 71.978604 V 7.3589607 H 73.909 Z"
           style="font-weight:500;-inkscape-font-specification:'Poppins Medium';fill:#ffffff"
           id="path123498" />
        <path
           d="M 86.930686,7.3589607 V 16.689209 H 85.00029 v -1.100665 q -0.457199,0.575733 -1.202264,0.914399 -0.728132,0.321732 -1.557864,0.321732 -1.100665,0 -1.981196,-0.457199 -0.863598,-0.457199 -1.371597,-1.354664 -0.491066,-0.897465 -0.491066,-2.167462 V 7.3589607 h 1.913463 v 5.1985233 q 0,1.253064 0.626532,1.930396 0.626532,0.660399 1.710263,0.660399 1.083731,0 1.710263,-0.660399 0.643466,-0.677332 0.643466,-1.930396 V 7.3589607 Z"
           style="font-weight:500;-inkscape-font-specification:'Poppins Medium';fill:#ffffff"
           id="path123500" />
        <path
           d="m 92.857314,16.841609 q -1.100664,0 -1.981196,-0.389466 -0.863598,-0.406399 -1.371597,-1.083731 -0.507999,-0.694266 -0.541866,-1.540931 h 1.99813 q 0.0508,0.592666 0.558799,0.999065 0.524932,0.389466 1.303864,0.389466 0.812798,0 1.253064,-0.3048 0.457199,-0.321732 0.457199,-0.812798 0,-0.524932 -0.507999,-0.778932 -0.491066,-0.253999 -1.574797,-0.558799 -1.049864,-0.287866 -1.710263,-0.558799 -0.660399,-0.270932 -1.151465,-0.829731 -0.474132,-0.558799 -0.474132,-1.4731973 0,-0.7450652 0.440266,-1.354664 0.440266,-0.6265321 1.253064,-0.9821314 0.829732,-0.3555993 1.89653,-0.3555993 1.59173,0 2.556928,0.8127984 0.982131,0.7958651 1.049865,2.1843956 h -1.930397 q -0.0508,-0.626532 -0.507999,-0.9990646 -0.457199,-0.3725326 -1.236131,-0.3725326 -0.761998,0 -1.168397,0.2878661 -0.406399,0.2878661 -0.406399,0.7619985 0,0.3725326 0.270932,0.6265316 0.270933,0.254 0.660399,0.4064 0.389466,0.135466 1.151464,0.355599 1.015998,0.270933 1.659464,0.558799 0.660399,0.270933 1.134531,0.812798 0.474132,0.541866 0.491066,1.439331 0,0.795865 -0.440266,1.422397 -0.440266,0.626532 -1.253064,0.982131 -0.795865,0.3556 -1.879597,0.3556 z"
           style="font-weight:500;-inkscape-font-specification:'Poppins Medium';fill:#ffffff"
           id="path123502" />
        <path
           d="m 100.76514,8.9337576 v 5.1646564 q 0,0.524932 0.23707,0.761999 0.254,0.220132 0.84666,0.220132 h 1.18533 v 1.608664 h -1.52399 q -1.30387,0 -1.998133,-0.609599 -0.694265,-0.609599 -0.694265,-1.981196 V 8.9337576 H 97.717148 V 7.3589607 h 1.100664 V 5.0390986 h 1.947328 v 2.3198621 h 2.26906 v 1.5747969 z"
           style="font-weight:500;-inkscape-font-specification:'Poppins Medium';fill:#ffffff"
           id="path123504" />
        <path
           d="m 113.36351,11.795485 q 0,0.524933 -0.0677,0.948265 h -7.12892 q 0.0847,1.117598 0.82973,1.79493 0.74506,0.677332 1.82879,0.677332 1.55787,0 2.20133,-1.303864 h 2.0828 q -0.42333,1.286931 -1.54093,2.116662 -1.10067,0.812799 -2.7432,0.812799 -1.33773,0 -2.40452,-0.592666 -1.04987,-0.609599 -1.65947,-1.69333 -0.59266,-1.100664 -0.59266,-2.539995 0,-1.43933 0.57573,-2.5230615 0.59266,-1.1006645 1.64253,-1.69333 1.0668,-0.5926655 2.43839,-0.5926655 1.3208,0 2.35373,0.5757322 1.03293,0.5757322 1.60867,1.6255968 0.57573,1.032931 0.57573,2.387595 z m -2.01506,-0.609599 q -0.0169,-1.066797 -0.762,-1.7102628 -0.74507,-0.6434654 -1.84573,-0.6434654 -0.99907,0 -1.71027,0.6434654 -0.71119,0.6265318 -0.84666,1.7102628 z"
           style="font-weight:500;-inkscape-font-specification:'Poppins Medium';fill:#ffffff"
           id="path123506" />
        <path
           d="m 123.81133,11.795485 q 0,0.524933 -0.0677,0.948265 h -7.12892 q 0.0847,1.117598 0.82973,1.79493 0.74507,0.677332 1.8288,0.677332 1.55786,0 2.20133,-1.303864 h 2.08279 q -0.42333,1.286931 -1.54093,2.116662 -1.10066,0.812799 -2.74319,0.812799 -1.33773,0 -2.40453,-0.592666 -1.04987,-0.609599 -1.65947,-1.69333 -0.59266,-1.100664 -0.59266,-2.539995 0,-1.43933 0.57573,-2.5230615 0.59267,-1.1006645 1.64253,-1.69333 1.0668,-0.5926655 2.4384,-0.5926655 1.32079,0 2.35373,0.5757322 1.03293,0.5757322 1.60866,1.6255968 0.57573,1.032931 0.57573,2.387595 z m -2.01506,-0.609599 q -0.0169,-1.066797 -0.762,-1.7102628 -0.74507,-0.6434654 -1.84573,-0.6434654 -0.99906,0 -1.71026,0.6434654 -0.7112,0.6265318 -0.84667,1.7102628 z"
           style="font-weight:500;-inkscape-font-specification:'Poppins Medium';fill:#ffffff"
           id="path123508" />
      </g>
    </g>
  </g>
</svg>
