<?xml version="1.0" encoding="UTF-8" standalone="no"?>
<!-- Created with Inkscape (http://www.inkscape.org/) -->

<svg
   width="650"
   height="90"
   viewBox="0 0 171.97918 23.812502"
   version="1.1"
   id="svg1203"
   inkscape:version="1.1 (1:1.1+202105261517+ce6663b3b7)"
   sodipodi:docname="logo.svg"
   xmlns:inkscape="http://www.inkscape.org/namespaces/inkscape"
   xmlns:sodipodi="http://sodipodi.sourceforge.net/DTD/sodipodi-0.dtd"
   xmlns="http://www.w3.org/2000/svg"
   xmlns:svg="http://www.w3.org/2000/svg">
  <sodipodi:namedview
     id="namedview1205"
     pagecolor="#ffffff"
     bordercolor="#666666"
     borderopacity="1.0"
     inkscape:pageshadow="2"
     inkscape:pageopacity="0.0"
     inkscape:pagecheckerboard="0"
     inkscape:document-units="mm"
     showgrid="false"
     width="650px"
     units="px"
     inkscape:zoom="1.4289282"
     inkscape:cx="334.86637"
     inkscape:cy="84.32894"
     inkscape:window-width="1920"
     inkscape:window-height="948"
     inkscape:window-x="1920"
     inkscape:window-y="27"
     inkscape:window-maximized="1"
     inkscape:current-layer="layer1"
     inkscape:snap-global="false" />
  <defs
     id="defs1200">
    <inkscape:path-effect
       effect="fillet_chamfer"
       id="path-effect57379"
       is_visible="true"
       lpeversion="1"
       satellites_param="F,0,0,1,0,0,0,1 @ F,0,0,1,0,0,0,1 @ F,0,0,1,0,0,0,1 @ F,0,0,1,0,0,0,1"
       unit="px"
       method="auto"
       mode="F"
       radius="14"
       chamfer_steps="1"
       flexible="false"
       use_knot_distance="true"
       apply_no_radius="true"
       apply_with_radius="true"
       only_selected="false"
       hide_knots="false" />
  </defs>
  <g
     inkscape:label="Layer 1"
     inkscape:groupmode="layer"
     id="layer1">
    <path
       style="fill:#ffe6d5;stroke:none;stroke-width:1.4928;stroke-linecap:round;stroke-linejoin:round;stroke-miterlimit:4;stroke-dasharray:none;stroke-opacity:1"
       id="rect4955"
       width="36.496414"
       height="18.151592"
       x="127.93157"
       y="2.9803145"
       inkscape:export-filename="/home/braginini/Documents/projects/my/wiretrustee/wiretrustee.com-nextjs/public/brand-assets/logo.png"
       inkscape:export-xdpi="100"
       inkscape:export-ydpi="100"
       inkscape:path-effect="#path-effect57379"
       d="m 127.93157,2.9803145 h 36.49642 V 21.131907 h -36.49642 z"
       sodipodi:type="rect" />
    <path
       id="text844-7-3"
       style="font-style:normal;font-variant:normal;font-weight:normal;font-stretch:normal;font-size:7.7611px;line-height:1.25;font-family:FreeSans;-inkscape-font-specification:FreeSans;fill:#333333;fill-opacity:1;stroke:none;stroke-width:0.571492"
       d="m 66.264845,5.2266851 v 2.295988 h -1.090531 v 1.5593155 h 1.090531 V 14.19525 c 0,0.905237 0.228262,1.55882 0.686465,1.961131 0.458215,0.402335 1.118491,0.602756 1.979038,0.602756 h 1.507993 v -1.591689 h -1.173135 c -0.391156,0 -0.670628,-0.07345 -0.838269,-0.218783 -0.156468,-0.156388 -0.234403,-0.40698 -0.234403,-0.753415 V 9.0819886 h 2.245807 V 7.5226731 h -2.245807 v -2.295988 z m 32.505015,0 v 2.295988 H 97.680452 V 9.0819886 H 98.76986 V 14.19525 c 0,0.905237 0.22937,1.55882 0.6876,1.961131 0.45821,0.402335 1.11735,0.602756 1.9779,0.602756 h 1.50799 v -1.591689 h -1.17313 c -0.39115,0 -0.67063,-0.07345 -0.83827,-0.218783 -0.15638,-0.156388 -0.2344,-0.40698 -0.2344,-0.753415 V 9.0819886 h 2.2458 V 7.5226731 h -2.2458 v -2.295988 z m -44.910523,2.145309 c -0.637026,0 -1.190408,0.13369 -1.6598,0.401819 -0.458204,0.257055 -0.826758,0.6211365 -1.106155,1.0905185 V 7.5226731 h -1.910947 v 9.2364639 h 1.910947 v -4.860998 c 0,-0.938759 0.190404,-1.597913 0.570377,-1.9778944 0.391162,-0.379978 0.960125,-0.570356 1.708914,-0.570356 h 0.486664 z m 5.732829,0 c -0.905251,0 -1.709149,0.195908 -2.413231,0.587121 -0.692912,0.3911475 -1.235155,0.9500775 -1.626316,1.6765145 -0.379982,0.7152494 -0.570376,1.5469584 -0.570376,2.4969074 0,0.949927 0.195974,1.788334 0.587121,2.51477 0.402336,0.715248 0.950149,1.27418 1.643055,1.676512 0.704086,0.391148 1.496855,0.58712 2.379747,0.58712 1.08407,0 1.989307,-0.268352 2.715728,-0.804778 0.737616,-0.547611 1.246461,-1.246853 1.525859,-2.096214 h -2.061637 c -0.424692,0.860527 -1.151761,1.291438 -2.17995,1.291438 -0.715255,0 -1.318741,-0.223793 -1.810485,-0.670817 -0.491737,-0.447045 -0.765644,-1.039368 -0.821526,-1.776976 h 7.057768 c 0.0447,-0.279387 0.06697,-0.592258 0.06697,-0.938713 0,-0.894069 -0.189278,-1.682368 -0.569262,-2.3640944 -0.379984,-0.69289 -0.911102,-1.228452 -1.592826,-1.6084085 -0.681735,-0.379981 -1.458922,-0.570382 -2.330644,-0.570382 z m 17.284448,0 c -0.637027,0 -1.190408,0.13369 -1.659796,0.401819 -0.458215,0.257055 -0.82788,0.6211365 -1.107274,1.0905185 V 7.5226731 h -1.910945 v 9.2364639 h 1.910945 v -4.860998 c 0,-0.938759 0.190403,-1.597913 0.570378,-1.9778944 0.391161,-0.379978 0.961241,-0.570356 1.710027,-0.570356 h 0.486665 z m 15.841178,0 c -0.70407,0 -1.32981,0.116842 -1.87744,0.351597 -0.53646,0.234682 -0.94953,0.5586965 -1.24012,0.9722005 -0.29055,0.402332 -0.43642,0.849919 -0.43642,1.3416534 0,0.603491 0.15703,1.090065 0.46993,1.458856 0.32408,0.368813 0.70377,0.642716 1.13963,0.821518 0.43586,0.178839 1.00038,0.362527 1.69328,0.552513 0.71526,0.201098 1.23526,0.385987 1.55934,0.553619 0.33528,0.167614 0.50231,0.424843 0.50231,0.771299 0,0.324101 -0.15034,0.59131 -0.45207,0.803655 -0.29058,0.2011 -0.70478,0.30248 -1.24122,0.30248 -0.51409,0 -0.94389,-0.129155 -1.29033,-0.3862 -0.3353,-0.2682 -0.52013,-0.597789 -0.55365,-0.988936 h -1.97792 c 0.0225,0.558779 0.20152,1.067623 0.5369,1.525815 0.33528,0.447045 0.78734,0.804452 1.3573,1.072654 0.58115,0.257057 1.23476,0.386221 1.96119,0.386221 0.71526,0 1.33542,-0.118165 1.8607,-0.35272 0.53645,-0.2347 0.95065,-0.558694 1.24123,-0.972194 0.29057,-0.413503 0.43532,-0.882256 0.43532,-1.407515 -0.0108,-0.592323 -0.17258,-1.067751 -0.48556,-1.425377 -0.31291,-0.357623 -0.68815,-0.625951 -1.12401,-0.804776 -0.42468,-0.190086 -0.97138,-0.374816 -1.64194,-0.553617 -0.50291,-0.145356 -0.88371,-0.262197 -1.14076,-0.351597 -0.25706,-0.100642 -0.47418,-0.234203 -0.65298,-0.401839 -0.17886,-0.167614 -0.26901,-0.374731 -0.26901,-0.620599 0,-0.3129124 0.13479,-0.5645454 0.40295,-0.7545364 0.26823,-0.190066 0.65348,-0.284637 1.15639,-0.284637 0.51408,0 0.9216,0.122473 1.22335,0.368357 0.30176,0.245846 0.46989,0.575435 0.50341,0.9889344 h 1.91094 c -0.0447,-0.9164244 -0.39097,-1.6367934 -1.03917,-2.1620699 -0.63704,-0.536427 -1.48102,-0.804759 -2.53157,-0.804759 z m 15.959528,0 c -0.90527,0 -1.71028,0.195908 -2.41436,0.587121 -0.6929,0.3911475 -1.23515,0.9500775 -1.62632,1.6765145 -0.37998,0.7152494 -0.56925,1.5469584 -0.56925,2.4969074 0,0.949927 0.19483,1.788334 0.58601,2.51477 0.40232,0.715248 0.95013,1.27418 1.64303,1.676512 0.7041,0.391148 1.49798,0.58712 2.38089,0.58712 1.08407,0 1.98931,-0.268352 2.71573,-0.804778 0.73761,-0.547611 1.24645,-1.246853 1.52587,-2.096214 h -2.06278 c -0.42468,0.860548 -1.15066,1.291438 -2.17882,1.291438 -0.71527,0 -1.31875,-0.223793 -1.8105,-0.670817 -0.49173,-0.447045 -0.76565,-1.039368 -0.82153,-1.776976 h 7.05777 c 0.0448,-0.279387 0.067,-0.592258 0.067,-0.938713 0,-0.894069 -0.19028,-1.682368 -0.57038,-2.3640944 -0.37997,-0.69289 -0.91109,-1.228452 -1.59282,-1.6084085 -0.68174,-0.379981 -1.4578,-0.570382 -2.32953,-0.570382 z m 10.34276,0 c -0.90526,0 -1.70916,0.195908 -2.41324,0.587121 -0.69291,0.3911475 -1.23515,0.9500775 -1.62631,1.6765145 -0.37999,0.7152494 -0.57038,1.5469584 -0.57038,2.4969074 0,0.949927 0.1959,1.788334 0.58713,2.51477 0.40234,0.715248 0.95014,1.27418 1.64306,1.676512 0.70408,0.391148 1.49684,0.58712 2.37974,0.58712 1.08408,0 1.98929,-0.268352 2.71574,-0.804778 0.73762,-0.547611 1.24644,-1.246853 1.52587,-2.096214 h -2.06166 c -0.4247,0.860527 -1.15177,1.291438 -2.17995,1.291438 -0.71526,0 -1.31873,-0.223793 -1.81047,-0.670817 -0.49175,-0.447045 -0.76566,-1.039368 -0.82153,-1.776976 h 7.05775 c 0.0448,-0.279387 0.067,-0.592258 0.067,-0.938713 0,-0.894069 -0.18921,-1.682368 -0.56926,-2.3640944 -0.37999,-0.69289 -0.9111,-1.228452 -1.59284,-1.6084085 -0.68171,-0.379981 -1.45889,-0.570382 -2.33063,-0.570382 z m -89.183721,0.150763 2.883159,9.2364649 h 2.012517 l 1.860716,-6.8221514 1.860715,6.8221514 h 2.011403 L 43.331286,7.5227571 H 41.453827 L 39.542883,14.91527 37.665421,7.5227571 H 35.670766 L 33.709591,14.948747 31.780789,7.5227571 Z m 14.920323,0 v 9.2364649 h 1.910944 V 7.5227571 Z m 33.795356,0 V 12.95414 c 0,0.838171 0.16256,1.55411 0.486669,2.146434 0.335273,0.592302 0.78733,1.038786 1.357305,1.340532 0.581147,0.301747 1.235853,0.453181 1.962287,0.453181 0.54762,0 1.060916,-0.10692 1.541483,-0.319241 0.491734,-0.223514 0.88924,-0.525257 1.190991,-0.905237 v 1.089417 h 1.910943 V 7.5227581 h -1.910943 v 5.1467429 c 0,0.827004 -0.212675,1.463891 -0.637358,1.910914 -0.4135,0.435855 -0.978019,0.654099 -1.693284,0.654099 -0.715257,0 -1.279769,-0.218244 -1.693281,-0.654099 -0.413509,-0.447023 -0.620608,-1.08391 -0.620608,-1.910914 V 7.5227581 Z M 59.508455,8.9816146 c 0.726438,0 1.335486,0.212759 1.827226,0.637338 0.491744,0.4246924 0.74338,0.9880724 0.75456,1.6921534 H 56.9769 c 0.08941,-0.715244 0.368877,-1.278629 0.838272,-1.6921534 0.469387,-0.424667 1.0339,-0.637338 1.693283,-0.637338 z m 49.085145,0 c 0.72644,0 1.33549,0.212759 1.82724,0.637338 0.49173,0.4246924 0.74338,0.9880724 0.75455,1.6921534 h -5.11336 c 0.0894,-0.715244 0.36889,-1.278629 0.83827,-1.6921534 0.46939,-0.424667 1.03391,-0.637338 1.6933,-0.637338 z m 10.34275,0 c 0.72646,0 1.33551,0.212759 1.82726,0.637338 0.49172,0.4246924 0.74337,0.9880724 0.75454,1.6921534 h -5.11335 c 0.0894,-0.715244 0.3689,-1.278629 0.83829,-1.6921534 0.46938,-0.424667 1.03389,-0.637338 1.69326,-0.637338 z"
       inkscape:export-filename="/home/braginini/Documents/projects/my/wiretrustee/wiretrustee.com-nextjs/public/brand-assets/logo.png"
       inkscape:export-xdpi="100"
       inkscape:export-ydpi="100" />
    <rect
       style="fill:#4d4d4d;fill-opacity:1;stroke:#4d4d4d;stroke-width:0.469682;stroke-miterlimit:4;stroke-dasharray:none;stroke-opacity:1"
       id="rect846-7-1-6-3-3"
       width="8.3084803"
       height="1.4026668"
       x="-16.427496"
       y="9.0759926"
       transform="rotate(-90.316085)"
       inkscape:export-filename="/home/braginini/Documents/projects/my/wiretrustee/wiretrustee.com-nextjs/public/brand-assets/logo.png"
       inkscape:export-xdpi="100"
       inkscape:export-ydpi="100" />
    <rect
       style="fill:#4d4d4d;fill-opacity:1;stroke:#4d4d4d;stroke-width:0.475903;stroke-miterlimit:4;stroke-dasharray:none;stroke-opacity:1"
       id="rect848-5-2-7-6-6"
       width="11.044826"
       height="1.3431981"
       x="-17.756079"
       y="12.90315"
       transform="rotate(-90.316085)"
       inkscape:export-filename="/home/braginini/Documents/projects/my/wiretrustee/wiretrustee.com-nextjs/public/brand-assets/logo.png"
       inkscape:export-xdpi="100"
       inkscape:export-ydpi="100" />
    <rect
       style="fill:#fb923c;fill-opacity:1;stroke:#fb923c;stroke-width:0.433222;stroke-miterlimit:4;stroke-dasharray:none;stroke-opacity:1"
       id="rect856-2-3-3-7-7"
       width="18.221733"
       height="1.5770524"
       x="-20.953156"
       y="16.713232"
       transform="matrix(-0.00773537,-0.99997008,0.99999226,-0.00393418,0,0)"
       inkscape:export-filename="/home/braginini/Documents/projects/my/wiretrustee/wiretrustee.com-nextjs/public/brand-assets/logo.png"
       inkscape:export-xdpi="100"
       inkscape:export-ydpi="100" />
    <rect
       style="fill:#c8beb7;fill-opacity:1;stroke:#c8beb7;stroke-width:0.469681;stroke-miterlimit:4;stroke-dasharray:none;stroke-opacity:1"
       id="rect846-2-2-1-5-5-5"
       width="8.3038759"
       height="1.4026663"
       x="8.150857"
       y="-25.684265"
       transform="matrix(0.0087466,0.99996175,-0.9999641,0.00847299,0,0)"
       inkscape:export-filename="/home/braginini/Documents/projects/my/wiretrustee/wiretrustee.com-nextjs/public/brand-assets/logo.png"
       inkscape:export-xdpi="100"
       inkscape:export-ydpi="100" />
    <rect
       style="fill:#c8beb7;fill-opacity:1;stroke:#c8beb7;stroke-width:0.475903;stroke-miterlimit:4;stroke-dasharray:none;stroke-opacity:1"
       id="rect848-0-8-9-6-3-3"
       width="11.044831"
       height="1.3431977"
       x="6.9009185"
       y="-21.856609"
       transform="matrix(0.00872437,0.99996194,-0.99996393,0.00849351,0,0)"
       inkscape:export-filename="/home/braginini/Documents/projects/my/wiretrustee/wiretrustee.com-nextjs/public/brand-assets/logo.png"
       inkscape:export-xdpi="100"
       inkscape:export-ydpi="100" />
    <rect
       style="fill:#333333;fill-opacity:1;stroke:none;stroke-width:0.927138;stroke-linejoin:bevel;stroke-miterlimit:4;stroke-dasharray:none;stroke-opacity:1;paint-order:markers stroke fill"
       id="rect967-9"
       width="1.8994216"
       height="2.0887082"
       x="44.768204"
       y="4.4566131"
       inkscape:export-filename="/home/braginini/Documents/projects/my/wiretrustee/wiretrustee.com-nextjs/public/brand-assets/logo.png"
       inkscape:export-xdpi="100"
       inkscape:export-ydpi="100" />
    <g
       aria-label="DOCS"
       id="text6626"
       style="font-size:10.5833px;line-height:1.25;font-family:Poppins;-inkscape-font-specification:Poppins;stroke-width:0.264583">
      <path
         d="m 134.29345,8.1771893 q 1.17475,0 2.05316,0.4656652 0.87842,0.4656651 1.35467,1.3123291 0.48683,0.8360804 0.48683,1.9367434 0,1.09008 -0.48683,1.936744 -0.47625,0.846664 -1.36525,1.312329 -0.87841,0.465666 -2.04258,0.465666 h -2.7834 V 8.1771893 Z m -0.11641,5.8631477 q 1.02658,0 1.59808,-0.560915 0.57149,-0.560914 0.57149,-1.587495 0,-1.02658 -0.57149,-1.598078 -0.5715,-0.571498 -1.59808,-0.571498 h -0.85725 v 4.317986 z"
         style="font-weight:bold;-inkscape-font-specification:'Poppins Bold';fill:#fb923c"
         id="path57236" />
      <path
         d="m 142.71775,15.680749 q -1.04774,0 -1.92616,-0.486832 -0.86783,-0.486832 -1.38641,-1.354662 -0.508,-0.878414 -0.508,-1.968494 0,-1.09008 0.508,-1.9579106 0.51858,-0.8678306 1.38641,-1.3546623 0.87842,-0.4868318 1.92616,-0.4868318 1.04775,0 1.91558,0.4868318 0.87841,0.4868317 1.37583,1.3546623 0.508,0.8678306 0.508,1.9579106 0,1.09008 -0.508,1.968494 -0.508,0.86783 -1.37583,1.354662 -0.86783,0.486832 -1.91558,0.486832 z m 0,-1.650995 q 0.889,0 1.41817,-0.592665 0.53974,-0.592665 0.53974,-1.566328 0,-0.984247 -0.53974,-1.566329 -0.52917,-0.5926643 -1.41817,-0.5926643 -0.89958,0 -1.43933,0.5820813 -0.52916,0.582082 -0.52916,1.576912 0,0.984247 0.52916,1.576911 0.53975,0.582082 1.43933,0.582082 z"
         style="font-weight:bold;-inkscape-font-specification:'Poppins Bold';fill:#fb923c"
         id="path57238" />
      <path
         d="m 147.21565,11.881344 q 0,-1.100663 0.47625,-1.9579103 0.47625,-0.8678306 1.32291,-1.344079 0.85725,-0.4868318 1.93674,-0.4868318 1.32292,0 2.26483,0.6984977 0.94191,0.6984978 1.25941,1.9049944 h -1.98966 q -0.22225,-0.465666 -0.635,-0.7090815 -0.40216,-0.2434159 -0.92074,-0.2434159 -0.83608,0 -1.35467,0.5820814 -0.51858,0.582082 -0.51858,1.555745 0,0.973664 0.51858,1.555745 0.51859,0.582082 1.35467,0.582082 0.51858,0 0.92074,-0.243416 0.41275,-0.243416 0.635,-0.709081 h 1.98966 q -0.3175,1.206496 -1.25941,1.904994 -0.94191,0.687914 -2.26483,0.687914 -1.07949,0 -1.93674,-0.476248 -0.84666,-0.486832 -1.32291,-1.344079 -0.47625,-0.857248 -0.47625,-1.957911 z"
         style="font-weight:bold;-inkscape-font-specification:'Poppins Bold';fill:#fb923c"
         id="path57240" />
      <path
         d="m 158.27519,15.680749 q -0.81492,0 -1.4605,-0.264583 -0.64558,-0.264582 -1.03716,-0.783164 -0.381,-0.518582 -0.40217,-1.248829 h 1.92616 q 0.0423,0.412748 0.28575,0.634998 0.24342,0.211666 0.635,0.211666 0.40217,0 0.635,-0.179916 0.23283,-0.1905 0.23283,-0.518582 0,-0.275166 -0.1905,-0.455082 -0.17991,-0.179916 -0.45508,-0.296332 -0.26458,-0.116417 -0.762,-0.264583 -0.71966,-0.222249 -1.17474,-0.444498 -0.45509,-0.22225 -0.78317,-0.656165 -0.32808,-0.433915 -0.32808,-1.132413 0,-1.0371635 0.75141,-1.619245 0.75142,-0.5926647 1.95791,-0.5926647 1.22767,0 1.97908,0.5926647 0.75142,0.5820815 0.80433,1.629828 h -1.95791 q -0.0212,-0.359832 -0.26458,-0.5609147 -0.24342,-0.211666 -0.62442,-0.211666 -0.32808,0 -0.52916,0.1799161 -0.20108,0.1693328 -0.20108,0.4974146 0,0.359833 0.33866,0.560915 0.33867,0.201083 1.05833,0.433916 0.71967,0.243416 1.16417,0.465665 0.45508,0.222249 0.78316,0.645581 0.32808,0.423332 0.32808,1.09008 0,0.634998 -0.32808,1.15358 -0.3175,0.518581 -0.93133,0.825497 -0.61383,0.306916 -1.44991,0.306916 z"
         style="font-weight:bold;-inkscape-font-specification:'Poppins Bold';fill:#fb923c"
         id="path57242" />
    </g>
  </g>
</svg>
